<svg xmlns="http://www.w3.org/2000/svg" viewBox="99 216 826 524" width="826" height="524"><defs>
 <linearGradient id="bg" x1="0" y1="0" x2="1" y2="1"><stop offset="0" stop-color="#18271F"/><stop offset="1" stop-color="#060A08"/></linearGradient>
 <radialGradient id="bloom" cx=".24" cy=".14" r=".85">
  <stop offset="0" stop-color="#3EB56D" stop-opacity=".30"/>
  <stop offset="1" stop-color="#3EB56D" stop-opacity="0"/></radialGradient>
 <linearGradient id="gloss" x1="0" y1="0" x2="0" y2="1">
  <stop offset="0" stop-color="#FFFFFF" stop-opacity=".14"/>
  <stop offset=".5" stop-color="#FFFFFF" stop-opacity="0"/></linearGradient>
 <linearGradient id="ring" x1="0" y1="0" x2="1" y2="1"><stop offset="0" stop-color="#9BE3B4"/><stop offset=".5" stop-color="#3EB56D"/><stop offset="1" stop-color="#9BE3B4"/></linearGradient>
 <linearGradient id="ng" gradientUnits="userSpaceOnUse"
   x1="372.0" y1="248.0"
   x2="652.0" y2="788.0">
  <stop offset="0" stop-color="#C9F3D9"/><stop offset="1" stop-color="#3EB56D"/></linearGradient>
 <filter id="tsh" x="-25%" y="-25%" width="150%" height="160%">
  <feGaussianBlur stdDeviation="16"/></filter>
</defs><path d="M418.0 700.0L418.0 330.0L606.0 700.0L606.0 330.0" fill="none" stroke="url(#ng)" stroke-width="80.0" stroke-linecap="round" stroke-linejoin="round"/><path d="M188.0 515.0L352.0 515.0" fill="none" stroke="#3EB56D" stroke-width="34.0" stroke-linecap="round" stroke-linejoin="round" opacity=".95"/><path d="M672.0 515.0L836.0 515.0" fill="none" stroke="#3EB56D" stroke-width="34.0" stroke-linecap="round" stroke-linejoin="round" opacity=".95"/><circle cx="150.0" cy="515.0" r="38.0" fill="none" stroke="#3EB56D" stroke-width="26.0" opacity=".95"/><circle cx="874.0" cy="515.0" r="38.0" fill="none" stroke="#3EB56D" stroke-width="26.0" opacity=".95"/><path transform="translate(638.0,274.0) scale(58.0)" fill="#EAFBF1" d="M0,-1 C.1,-.29 .29,-.1 1,0 .29,.1 .1,.29 0,1 -.1,.29 -.29,.1 -1,0 -.29,-.1 -.1,-.29 0,-1 Z"/></svg>
